<?xml version="1.0" standalone="no"?>
<!DOCTYPE svg PUBLIC "-//W3C//DTD SVG 20010904//EN"
 "http://www.w3.org/TR/2001/REC-SVG-20010904/DTD/svg10.dtd">
<svg version="1.0" xmlns="http://www.w3.org/2000/svg"
 width="16.000000pt" height="16.000000pt" viewBox="0 0 16.000000 16.000000"
 preserveAspectRatio="xMidYMid meet">
<metadata>
Created by potrace 1.11, written by Peter Selinger 2001-2013
</metadata>
<g transform="translate(0.000000,16.000000) scale(0.004000,-0.004000)"
fill="#000000" stroke="none">
<path d="M275 3966 c-69 -22 -119 -53 -168 -103 -91 -93 -82 105 -85 -1857
l-2 -1739 23 -51 c30 -64 93 -127 160 -160 l51 -26 1746 0 1746 0 50 25 c62
31 127 94 154 149 20 42 20 55 20 1792 0 1689 -1 1750 -19 1789 -28 59 -98
124 -171 159 l-65 31 -1700 2 c-1354 1 -1708 -1 -1740 -11z m3364 -279 c19 -7
44 -25 55 -40 l21 -28 0 -1624 0 -1624 -21 -28 c-11 -15 -36 -33 -55 -40 -49
-17 -3229 -17 -3278 0 -19 7 -44 25 -55 40 l-21 28 0 1624 0 1624 21 28 c11
15 36 33 55 40 49 17 3229 17 3278 0z"/>
<path d="M730 2901 c0 -158 1 -170 23 -201 17 -25 78 -63 262 -162 132 -70
266 -137 298 -146 32 -10 58 -22 58 -27 0 -4 -31 -18 -68 -30 -65 -21 -436
-215 -516 -269 -21 -15 -42 -38 -48 -52 -5 -15 -8 -98 -7 -190 l3 -163 355
186 c195 102 461 241 590 308 l235 123 3 85 3 86 -63 34 c-99 54 -1120 587
-1124 587 -2 0 -4 -76 -4 -169z"/>
<path d="M2140 1065 l0 -135 575 0 575 0 0 135 0 135 -575 0 -575 0 0 -135z"/>
</g>
</svg>
